<svg aria-hidden="true" style="position: absolute; width: 0; height: 0; overflow: hidden;" version="1.1" xmlns="http://www.w3.org/2000/svg" xmlns:xlink="http://www.w3.org/1999/xlink">
<defs>
<symbol id="icon-eye" viewBox="0 0 32 32">
<path d="M16 3.731c-10.552 0-16.097 11.553-16.097 11.553-0.107 0.209-0.169 0.455-0.169 0.716s0.062 0.507 0.173 0.725l-0.004-0.009c0 0 5.545 11.553 16.097 11.553s16.097-11.553 16.097-11.553c0.107-0.209 0.169-0.455 0.169-0.716s-0.062-0.507-0.173-0.725l0.004 0.009c0 0-5.545-11.553-16.097-11.553zM16 6.931c7.519 0 12.028 7.838 12.712 9.069-0.685 1.231-5.193 9.069-12.713 9.069s-12.028-7.838-12.713-9.069c0.685-1.231 5.193-9.069 12.713-9.069z"></path>
<path d="M16 10.4c-1.733 0-3.237 0.708-4.197 1.787s-1.403 2.457-1.403 3.813c0 1.356 0.443 2.733 1.403 3.813s2.464 1.788 4.197 1.788c1.733 0 3.237-0.708 4.197-1.788s1.403-2.457 1.403-3.813c0-1.356-0.443-2.733-1.403-3.813s-2.464-1.787-4.197-1.787zM16 13.6c0.933 0 1.43 0.292 1.803 0.713s0.597 1.043 0.597 1.688c0 0.644-0.223 1.267-0.597 1.688s-0.87 0.712-1.803 0.712c-0.933 0-1.43-0.292-1.803-0.712s-0.597-1.043-0.597-1.688c0-0.644 0.223-1.267 0.597-1.688s0.87-0.713 1.803-0.713z"></path>
</symbol>
<symbol id="icon-eyeOff" viewBox="0 0 32 32">
<path d="M1.331-0.269c-0.442 0-0.842 0.179-1.131 0.469v0c-0.29 0.29-0.47 0.69-0.47 1.133s0.18 0.843 0.47 1.133l5.591 5.591c-2.34 2.060-4.39 4.432-5.869 7.188-0.119 0.218-0.189 0.478-0.189 0.754 0 0.262 0.063 0.509 0.174 0.727l-0.004-0.009c0 0 5.545 11.553 16.097 11.553 0.016-0.002 0.025-0.003 0.033-0.004l-0.008 0.001c2.718-0.045 5.291-0.967 7.588-2.387l5.922 5.922c0.29 0.29 0.69 0.47 1.133 0.47s0.843-0.18 1.133-0.47l0-0c0.29-0.29 0.47-0.69 0.47-1.133s-0.18-0.843-0.47-1.133l-29.334-29.334c-0.29-0.29-0.69-0.469-1.131-0.469-0.001 0-0.002 0-0.003 0h0zM16 3.731c-1.066-0.002-2.128 0.12-3.166 0.362-0.714 0.171-1.236 0.803-1.236 1.558 0 0.13 0.016 0.257 0.045 0.378l-0.002-0.011c0.172 0.712 0.804 1.233 1.557 1.233 0.13 0 0.257-0.016 0.379-0.045l-0.011 0.002c0.797-0.187 1.613-0.28 2.431-0.278 0 0 0.001 0 0.002 0s0.001 0 0.002 0h-0c7.539 0 12.067 7.894 12.731 9.091-0.655 1.113-1.337 2.211-2.169 3.2-0.234 0.276-0.377 0.637-0.377 1.031 0 0.49 0.221 0.929 0.568 1.223l0.002 0.002c0.276 0.234 0.637 0.377 1.031 0.377 0.49 0 0.929-0.221 1.223-0.568l0.002-0.002c1.177-1.399 2.204-2.919 3.066-4.531 0.118-0.218 0.188-0.477 0.188-0.753 0-0.261-0.063-0.508-0.173-0.725l0.004 0.009c0 0-5.544-11.551-16.094-11.553zM8.041 10.306l3.075 3.075c-0.555 0.937-0.921 1.926-0.875 2.903 0.070 1.47 0.741 2.784 1.716 3.759s2.289 1.646 3.759 1.716c0.977 0.046 1.966-0.32 2.903-0.875l2.659 2.659c-1.643 0.876-3.411 1.489-5.291 1.522-7.528-0.010-12.048-7.883-12.716-9.084 1.269-2.148 2.883-4.045 4.769-5.675zM13.572 15.838l2.591 2.591c-0.093 0.007-0.201 0.139-0.294 0.134-0.568-0.027-1.183-0.314-1.65-0.781s-0.754-1.082-0.781-1.65c-0.004-0.093 0.128-0.201 0.134-0.294z"></path>
</symbol>
<symbol id="icon-arrow" viewBox="0 0 28 32">
<path fill="#fbfbfb" style="fill: var(--color1, #fbfbfb)" d="M24.137 3.149c-0.133-0.921-0.917-1.62-1.864-1.62-0.093 0-0.184 0.007-0.273 0.020l0.010-0.001-16.776 2.359c-0.899 0.152-1.576 0.926-1.576 1.857 0 1.040 0.843 1.882 1.882 1.882 0.076 0 0.152-0.005 0.226-0.013l-0.009 0.001 14.914-2.095 2.095 14.912c0.116 0.939 0.908 1.659 1.869 1.659 1.040 0 1.882-0.843 1.882-1.882 0-0.107-0.009-0.211-0.026-0.313l0.002 0.011-2.357-16.776zM3.386 31.605l20.388-27.061-3.004-2.266-20.392 27.061 3.010 2.266z"></path>
</symbol>
<symbol id="icon-user" viewBox="0 0 32 32">
<path fill="#54be96" style="fill: var(--color2, #54be96)" d="M8 0h16c4.418 0 8 3.582 8 8v16c0 4.418-3.582 8-8 8h-16c-4.418 0-8-3.582-8-8v-16c0-4.418 3.582-8 8-8z"></path>
<path fill="#fbfbfb" style="fill: var(--color1, #fbfbfb)" d="M16 9.6c1.767 0 3.2 1.433 3.2 3.2s-1.433 3.2-3.2 3.2v0c-1.767 0-3.2-1.433-3.2-3.2s1.433-3.2 3.2-3.2v0zM16 17.6c3.536 0 6.4 1.432 6.4 3.2v1.6h-12.8v-1.6c0-1.768 2.864-3.2 6.4-3.2z"></path>
</symbol>
<symbol id="icon-up" viewBox="0 0 48 32">
<path fill="#fbfbfb" style="fill: var(--color1, #fbfbfb)" d="M21.172 3.172l-20 20c-0.724 0.724-1.171 1.724-1.171 2.828s0.448 2.104 1.171 2.828v0c0.724 0.724 1.724 1.171 2.828 1.171s2.104-0.448 2.828-1.171l17.172-17.172 17.172 17.172c0.724 0.724 1.724 1.171 2.828 1.171s2.104-0.448 2.828-1.171v0c0.724-0.724 1.171-1.724 1.171-2.828s-0.448-2.104-1.171-2.828l-20-20c-0.724-0.724-1.724-1.171-2.828-1.171s-2.104 0.448-2.828 1.171v0z"></path>
</symbol>
<symbol id="icon-starYellow" viewBox="0 0 34 32">
<path fill="#ffc531" style="fill: var(--color3, #ffc531)" d="M13.227 10.020l3.84-7.277 3.84 7.277c0.339 0.644 0.96 1.092 1.675 1.216l8.107 1.404-5.734 5.901c-0.507 0.522-0.743 1.249-0.64 1.969l1.173 8.145-7.386-3.631c-0.653-0.321-1.417-0.321-2.069 0l-7.386 3.631 1.173-8.145c0.103-0.72-0.133-1.447-0.64-1.969l-5.737-5.901 8.107-1.402c0.718-0.124 1.337-0.574 1.677-1.218z"></path>
<path fill="#ffc531" style="fill: var(--color3, #ffc531)" d="M17.067 0l-4.971 9.425c-0.155 0.294-0.435 0.494-0.762 0.55l-10.5 1.817 7.429 7.642c0.231 0.238 0.339 0.567 0.292 0.896l-1.521 10.546 9.563-4.704c0.298-0.146 0.644-0.146 0.942 0l9.563 4.704-1.521-10.546c-0.047-0.328 0.060-0.658 0.292-0.896l7.425-7.642-10.496-1.817c-0.326-0.056-0.609-0.259-0.762-0.55zM17.067 5.487l2.708 5.129c0.525 0.998 1.484 1.688 2.587 1.879l5.721 0.992-4.046 4.162c-0.783 0.805-1.151 1.93-0.992 3.042l0.829 5.742-5.208-2.558c-1.008-0.495-2.192-0.495-3.2 0l-5.208 2.558 0.829-5.742c0.16-1.112-0.209-2.236-0.992-3.042l-4.042-4.162 5.713-0.988c1.108-0.191 2.067-0.889 2.592-1.883z"></path>
</symbol>
<symbol id="icon-R" viewBox="0 0 26 32">
<path fill="#54be96" style="fill: var(--color2, #54be96)" d="M1.276 32v-31.029h11.061c2.404 0 4.399 0.414 5.984 1.242 1.596 0.828 2.788 1.975 3.575 3.439 0.789 1.455 1.182 3.136 1.182 5.045 0 1.899-0.399 3.571-1.195 5.015-0.789 1.434-1.982 2.551-3.578 3.349-1.585 0.798-3.582 1.195-5.984 1.195h-8.38v-4.026h7.955c1.515 0 2.748-0.218 3.697-0.653 0.96-0.433 1.662-1.067 2.106-1.894s0.666-1.822 0.666-2.985c0-1.171-0.226-2.187-0.683-3.044-0.444-0.86-1.146-1.515-2.103-1.971-0.951-0.463-2.197-0.695-3.744-0.695h-5.877v27.012h-4.683zM16.593 17.999l7.667 14.001h-5.333l-7.514-14.001h5.184z"></path>
</symbol>
<symbol id="icon-heartGreen" viewBox="0 0 32 32">
<path fill="#54be96" style="fill: var(--color2, #54be96)" d="M27.787 6.146c-2.864-2.866-7.51-2.866-10.374 0l-1.413 1.414-1.413-1.414c-6.915-7.015-17.388 3.457-10.374 10.373l11.787 11.787 11.787-11.787c2.864-2.865 2.864-7.508 0-10.373z"></path>
<path fill="#54be96" style="fill: var(--color2, #54be96)" d="M8.993 2.606c-2.186 0.122-4.191 1.136-5.688 2.632s-2.51 3.502-2.632 5.688c-0.123 2.186 0.702 4.526 2.675 6.471l1.409 1.406 10.373 10.375c0.481 0.48 1.26 0.48 1.74 0l11.786-11.788c3.334-3.335 3.334-8.778 0-12.113s-8.779-3.336-12.113 0l-0.543 0.543-0.536-0.538-0.007-0.005c-1.944-1.968-4.281-2.793-6.464-2.671zM9.132 5.065c1.504-0.084 3.067 0.411 4.579 1.945 0.002 0.002 0.003 0.005 0.005 0.007l1.413 1.413c0.481 0.48 1.26 0.48 1.74 0l1.413-1.413c2.394-2.395 6.238-2.395 8.632 0s2.394 6.238 0 8.632l-10.916 10.916-10.916-10.916c-0.002-0.002-0.005-0.005-0.007-0.007-1.534-1.512-2.029-3.076-1.945-4.579s0.804-2.975 1.913-4.084c1.109-1.109 2.583-1.829 4.087-1.913z"></path>
</symbol>
<symbol id="icon-heartBlack" viewBox="0 0 32 32">
<path d="M9.101 2.601c-2.155 0.091-4.14 1.051-5.644 2.49-1.555 1.487-2.622 3.51-2.776 5.726s0.663 4.602 2.668 6.579l1.409 1.406 10.373 10.375c0.223 0.223 0.53 0.36 0.87 0.36s0.647-0.138 0.87-0.36l11.786-11.788c3.334-3.335 3.334-8.778 0-12.113s-8.779-3.336-12.113 0l-0.543 0.543-0.536-0.538-0.007-0.005c-1.912-1.936-4.204-2.766-6.356-2.675zM9.207 5.060c1.481-0.062 3.018 0.441 4.505 1.95 0.004 0.007 0.006 0.009 0.008 0.012l-0.003-0.004 1.413 1.413c0.223 0.223 0.53 0.36 0.87 0.36s0.647-0.138 0.87-0.36l1.413-1.413c2.394-2.395 6.238-2.395 8.632 0s2.394 6.238 0 8.632l-10.916 10.916-10.916-10.916c-0.002-0.002-0.005-0.005-0.007-0.007l-0-0c-1.559-1.537-2.047-3.127-1.94-4.654s0.87-3.016 2.022-4.118c1.114-1.066 2.567-1.748 4.048-1.81z"></path>
</symbol>
<symbol id="icon-down" viewBox="0 0 48 32">
<path fill="#fbfbfb" style="fill: var(--color1, #fbfbfb)" d="M4 2c-1.104 0-2.104 0.448-2.828 1.172v0c-0.724 0.724-1.171 1.724-1.171 2.828s0.448 2.104 1.171 2.828l1.289 1.289 1.18 1.188 1.211 1.203 16.32 16.32c0.724 0.724 1.724 1.171 2.828 1.171s2.104-0.448 2.828-1.171l20-20c0.724-0.724 1.171-1.724 1.171-2.828s-0.448-2.104-1.171-2.828v0c-0.724-0.724-1.724-1.171-2.828-1.171s-2.104 0.448-2.828 1.171l-0.695 0.695-0.672 0.664-1.375 1.383-1.273 1.273-1.594 1.586-1.781 1.789-9.781 9.781-17.172-17.172c-0.724-0.724-1.724-1.172-2.828-1.172h-0z"></path>
</symbol>
<symbol id="icon-check" viewBox="0 0 40 32">
<path fill="#54be96" style="fill: var(--color1, #54be96)" d="M5 11l-5 5 15 15 25-25-5-5-20 20-10-10z"></path>
</symbol>
<symbol id="icon-people" viewBox="0 0 32 32">
<path fill="#fbc75e" style="fill: var(--color1, #fbc75e)" d="M12.001 1.404l14.76 3.955c2.893 0.775 4.61 3.749 3.835 6.643l-3.955 14.76c-0.775 2.893-3.749 4.61-6.643 3.835l-14.76-3.955c-2.893-0.775-4.61-3.749-3.835-6.643l3.955-14.76c0.775-2.893 3.749-4.61 6.643-3.835z"></path>
<path fill="#fbfbfb" style="fill: var(--color2, #fbfbfb)" d="M17.289 18.766l-0.232 0.866-6.062-1.624 0.232-0.866s0.464-1.732 3.495-0.92c3.031 0.812 2.567 2.544 2.567 2.544zM16.876 14.247c0.034-0.122 0.053-0.262 0.053-0.406 0-0.866-0.702-1.569-1.569-1.569-0.722 0-1.33 0.488-1.513 1.152l-0.003 0.011c-0.034 0.122-0.053 0.262-0.053 0.406 0 0.866 0.702 1.569 1.569 1.569 0.722 0 1.33-0.488 1.513-1.152l0.003-0.011zM17.727 17.028c0.304 0.396 0.487 0.899 0.487 1.444 0 0.187-0.021 0.369-0.062 0.543l0.003-0.016-0.232 0.866 1.732 0.464 0.232-0.866s0.421-1.572-2.16-2.435zM18.365 13.022c-0.12-0.034-0.259-0.054-0.402-0.054-0.18 0-0.353 0.031-0.513 0.089l0.011-0.003c0.091 0.234 0.143 0.505 0.143 0.788 0 0.696-0.317 1.318-0.814 1.729l-0.004 0.003c0.201 0.234 0.469 0.401 0.767 0.479 0.122 0.034 0.262 0.053 0.406 0.053 0.866 0 1.569-0.702 1.569-1.569 0-0.722-0.488-1.33-1.152-1.513l-0.011-0.003z"></path>
</symbol>
<symbol id="icon-question" viewBox="0 0 21 32">
<path fill="#fbfbfb" style="fill: var(--color1, #fbfbfb)" d="M5.333 9.201c0-2.502 1.914-4.533 4.267-4.533h2.133c2.353 0 4.267 2.031 4.267 4.531v0.256c0 1.545-0.74 2.982-1.961 3.81l-2.814 1.92c-0.833 0.579-1.501 1.338-1.959 2.223l-0.016 0.034c-0.469 0.915-0.717 1.941-0.717 2.987v0.105c0 1.254 0.954 2.268 2.133 2.268s2.133-1.013 2.133-2.268v-0.098c0-0.582 0.279-1.12 0.734-1.431l2.812-1.92c2.441-1.673 3.921-4.54 3.921-7.629v-0.256c0-5.007-3.819-9.067-8.533-9.067h-2.133c-4.715 0-8.533 4.060-8.533 9.067 0 1.254 0.954 2.268 2.133 2.268s2.133-1.013 2.133-2.268zM10.667 31.868c0.708 0 1.387-0.299 1.886-0.832 0.499-0.531 0.781-1.25 0.781-2.003 0-0.751-0.282-1.472-0.781-2.003-0.471-0.508-1.141-0.826-1.885-0.83h-0.001c-0.708 0-1.387 0.299-1.886 0.832-0.484 0.52-0.781 1.22-0.781 1.989 0 0.004 0 0.008 0 0.012v-0.001c0 0.753 0.282 1.472 0.781 2.005 0.501 0.531 1.178 0.83 1.886 0.83z"></path>
</symbol>
<symbol id="icon-close" viewBox="0 0 32 32">
<path d="M8 6.75c-0.001 0-0.001 0-0.002 0-0.345 0-0.657 0.14-0.883 0.365l0-0c-0.227 0.226-0.367 0.539-0.367 0.885s0.14 0.658 0.367 0.885l7.117 7.115-7.117 7.115c-0.227 0.226-0.367 0.539-0.367 0.885s0.14 0.658 0.367 0.885l0 0c0.226 0.227 0.539 0.367 0.885 0.367s0.658-0.14 0.885-0.367l7.115-7.117 7.115 7.117c0.226 0.227 0.539 0.367 0.885 0.367s0.658-0.14 0.885-0.367l0-0c0.227-0.226 0.367-0.539 0.367-0.885s-0.14-0.658-0.367-0.885l-7.117-7.115 7.117-7.115c0.227-0.226 0.367-0.539 0.367-0.885s-0.14-0.658-0.367-0.885l-0-0c-0.226-0.227-0.539-0.367-0.885-0.367s-0.658 0.14-0.885 0.367l-7.115 7.117-7.115-7.117c-0.226-0.226-0.538-0.365-0.883-0.365-0.001 0-0.001 0-0.002 0h0z"></path>
</symbol>
</defs>
</svg>
